<svg xmlns="http://www.w3.org/2000/svg" width="38" height="38" fill="none" viewBox="0 0 38 38"><g fill="#009688" clip-path="url(#a)"><path d="m16.123 17.365-1.344.302c-.036.008-.05.03-.042.068l.375 1.677c.008.038.03.051.067.043l1.345-.3c.575-.129.886-.568.765-1.106-.123-.547-.59-.812-1.166-.684Z"/><path d="M35.591 19.724a2.033 2.033 0 0 1 0-1.449l1.445-3.793a2.034 2.034 0 0 0-.788-2.428l-3.4-2.22a2.038 2.038 0 0 1-.851-1.172l-1.06-3.92a2.036 2.036 0 0 0-2.066-1.5l-4.055.203a2.038 2.038 0 0 1-1.378-.448L20.277.45a2.033 2.033 0 0 0-2.553 0l-3.161 2.546c-.39.313-.88.472-1.379.448L9.13 3.242a2.036 2.036 0 0 0-2.066 1.501l-1.06 3.919c-.131.482-.434.9-.852 1.172l-3.4 2.22a2.036 2.036 0 0 0-.789 2.428l1.446 3.793c.178.467.178.983 0 1.45L.963 23.517a2.036 2.036 0 0 0 .79 2.428l3.399 2.22c.418.273.72.69.852 1.172l1.06 3.919a2.036 2.036 0 0 0 2.066 1.5l4.054-.202c.5-.025.99.135 1.379.448l3.16 2.547c.746.6 1.809.6 2.554 0l3.16-2.547a2.04 2.04 0 0 1 1.38-.448l4.054.203a2.036 2.036 0 0 0 2.066-1.502l1.06-3.918c.13-.482.434-.9.852-1.172l3.399-2.22c.8-.523 1.13-1.534.788-2.428l-1.445-3.794Zm-23.156 1.3-2.438.545c-.037.008-.051.03-.042.068l.553 2.475a.091.091 0 0 1-.072.114l-.909.203a.09.09 0 0 1-.113-.072l-1.37-6.118a.091.091 0 0 1 .073-.114l3.948-.883c.057-.012.102.016.115.072l.178.797c.012.056-.016.1-.073.113l-2.892.647c-.036.009-.05.032-.043.069l.36 1.603c.008.037.03.051.067.043l2.438-.545a.09.09 0 0 1 .114.072l.178.797c.013.055-.016.1-.072.114Zm6.992 1.19-1.029.23c-.073.016-.117-.003-.16-.062l-1.754-2.187-1.085.243c-.037.008-.05.031-.043.068l.538 2.4c.012.056-.017.102-.072.114l-.908.204c-.057.012-.102-.017-.114-.072l-1.37-6.119c-.012-.055.017-.1.073-.113l2.438-.545c1.159-.26 2.183.319 2.432 1.431.185.825-.145 1.57-.808 2.002l1.901 2.27c.051.057.027.121-.039.136Zm5.172-1.158-3.948.884c-.055.012-.101-.016-.113-.072l-1.369-6.118c-.013-.056.017-.101.072-.113l3.948-.884c.057-.013.102.017.115.072l.178.797c.012.056-.017.1-.073.113l-2.892.647c-.037.009-.05.031-.043.069l.345 1.538c.008.037.03.052.068.044l2.437-.546c.057-.012.102.016.115.072l.178.797c.012.056-.017.101-.073.114l-2.438.545c-.036.008-.05.031-.043.068l.357 1.594c.008.037.031.052.068.044l2.892-.647c.056-.013.102.016.114.072l.178.797c.012.055-.016.101-.073.113Zm5.285-1.182-3.949.884c-.055.012-.101-.017-.113-.072l-1.369-6.118c-.013-.056.017-.101.072-.114l3.95-.883c.054-.013.1.016.113.072l.177.797c.013.055-.016.1-.071.113l-2.892.647c-.038.008-.052.031-.044.068l.345 1.539c.008.037.03.052.068.043l2.438-.545c.055-.013.1.016.114.072l.178.797c.012.056-.017.1-.072.114l-2.438.545c-.038.008-.052.03-.044.068l.357 1.594c.008.037.03.052.069.043l2.892-.646c.055-.013.1.016.113.072l.178.797c.012.055-.017.101-.072.113Z"/></g><defs><clipPath id="a"><path fill="#fff" d="M0 0h38v38H0z"/></clipPath></defs></svg>