<svg xmlns="http://www.w3.org/2000/svg" width="34" height="34" fill="none" viewBox="0 0 34 34"><path fill="#009688" d="M1.063 22.313v7.437c0 1.806 1.38 3.188 3.187 3.188h25.5c1.806 0 3.188-1.382 3.188-3.188v-7.438H1.061Zm8.18 6.693a1.027 1.027 0 0 1 0 1.488c-.212.212-.424.319-.743.319s-.531-.107-.744-.32L5.631 28.37a1.027 1.027 0 0 1 0-1.488l2.125-2.125a1.027 1.027 0 0 1 1.488 0 1.027 1.027 0 0 1 0 1.488l-1.381 1.381 1.38 1.381Zm19.126-.637-2.125 2.125c-.213.212-.425.319-.744.319s-.531-.107-.744-.32a1.027 1.027 0 0 1 0-1.487l1.381-1.381-1.38-1.381a1.027 1.027 0 0 1 0-1.488 1.027 1.027 0 0 1 1.487 0l2.125 2.125a1.027 1.027 0 0 1 0 1.488Zm4.569-8.181V4.25c0-1.806-1.382-3.188-3.188-3.188H4.25c-1.806 0-3.188 1.382-3.188 3.188v15.938h31.875ZM6.375 8.5H17c.637 0 1.063.425 1.063 1.063 0 .637-.425 1.062-1.063 1.062H6.375c-.638 0-1.063-.425-1.063-1.063 0-.637.425-1.062 1.063-1.062Zm0 4.25h6.375c.637 0 1.063.425 1.063 1.063 0 .637-.426 1.062-1.063 1.062H6.375c-.638 0-1.063-.425-1.063-1.063 0-.637.425-1.062 1.063-1.062Z"/></svg>