<svg xmlns="http://www.w3.org/2000/svg" width="38" height="38" fill="none" viewBox="0 0 38 38"><g fill="#009688" clip-path="url(#a)"><path d="M32.303 29.034A17.83 17.83 0 0 0 36.2 17.892 17.845 17.845 0 0 0 30.96 5.24 17.846 17.846 0 0 0 18.307 0 17.844 17.844 0 0 0 5.655 5.24a17.843 17.843 0 0 0-5.24 12.652 17.845 17.845 0 0 0 5.24 12.652 17.844 17.844 0 0 0 12.652 5.24 17.82 17.82 0 0 0 10.19-3.187L33.9 38l3.685-3.685-5.282-5.281Zm-4.21-1.357a13.79 13.79 0 0 1-9.786 4.053 13.79 13.79 0 0 1-9.785-4.053 13.788 13.788 0 0 1-4.053-9.785 13.787 13.787 0 0 1 4.053-9.785 13.788 13.788 0 0 1 9.785-4.053 13.787 13.787 0 0 1 9.785 4.053 13.786 13.786 0 0 1 4.054 9.785 13.786 13.786 0 0 1-4.054 9.785Z"/><path d="m11.572 17.45-.422-.06c-1.08-.152-1.469-.528-1.469-1.08 0-.622.447-1.069 1.257-1.069.67 0 1.268.2 1.914.623.06.035.118.023.165-.036l.564-.868c.047-.07.035-.118-.024-.165-.634-.481-1.585-.798-2.584-.798-1.644 0-2.701.963-2.701 2.407 0 1.327.87 2.067 2.408 2.278l.422.06c1.104.152 1.457.528 1.457 1.103 0 .67-.552 1.151-1.504 1.151-.892 0-1.656-.434-2.172-.845-.047-.047-.118-.047-.164.011l-.729.846c-.047.059-.023.129.024.176.622.587 1.761 1.057 2.936 1.057 1.985 0 3.007-1.057 3.007-2.478 0-1.374-.846-2.102-2.385-2.314Zm8.88-3.324H15.45c-.07 0-.117.046-.117.117v7.751c0 .07.047.118.117.118h5.003c.07 0 .118-.047.118-.118v-1.01c0-.07-.047-.117-.118-.117h-3.664l-.07-.07v-2.02l.07-.071h3.089c.07 0 .117-.047.117-.118v-1.01c0-.07-.047-.117-.117-.117h-3.089l-.07-.07v-1.95l.07-.07h3.664c.07 0 .118-.048.118-.118v-1.01c0-.07-.047-.117-.118-.117Zm4.37-.129c-1.374 0-2.408.657-2.819 1.926-.164.493-.211.94-.211 2.196 0 1.257.047 1.703.211 2.196.411 1.268 1.445 1.926 2.819 1.926 1.386 0 2.419-.657 2.83-1.926.165-.493.212-.94.212-2.196 0-1.257-.047-1.703-.212-2.196-.411-1.269-1.444-1.926-2.83-1.926Zm1.491 5.954c-.223.646-.692 1.045-1.491 1.045-.787 0-1.257-.4-1.48-1.045-.094-.294-.14-.705-.14-1.832 0-1.14.046-1.539.14-1.832.223-.646.693-1.046 1.48-1.046.799 0 1.268.4 1.491 1.046.094.293.142.692.142 1.832 0 1.127-.048 1.538-.142 1.832Z"/></g><defs><clipPath id="a"><path fill="#fff" d="M0 0h38v38H0z"/></clipPath></defs></svg>