<svg xmlns="http://www.w3.org/2000/svg" width="38" height="38" fill="none" viewBox="0 0 38 38"><path fill="#009688" d="M25.6 31.886a1.688 1.688 0 0 1-.666-.758H2.56V9.074h30.37v14.4a1.693 1.693 0 0 1 1.421 1.068 1.688 1.688 0 0 1 1.138-.174V3.58a2.135 2.135 0 0 0-2.132-2.133H2.133A2.135 2.135 0 0 0 0 3.58v27.975c0 1.176.957 2.132 2.133 2.132h23.272a1.687 1.687 0 0 1 .194-1.801Zm4.988-26.858c0-.435.353-.787.788-.787h.787c.435 0 .788.352.788.787v.893a.787.787 0 0 1-.788.787h-.787a.787.787 0 0 1-.788-.787v-.893Zm-3.662 0c0-.435.353-.787.788-.787h.788c.434 0 .787.352.787.787v.893a.787.787 0 0 1-.788.787h-.787a.787.787 0 0 1-.787-.787v-.893Zm-3.661 0c0-.435.352-.787.787-.787h.788c.435 0 .787.352.787.787v.893a.788.788 0 0 1-.787.787h-.788a.787.787 0 0 1-.787-.787v-.893Z"/><path fill="#009688" d="m37.995 30.384-.237-1.342a.332.332 0 0 0-.385-.27l-1.193.21a4.477 4.477 0 0 0-.544-.938l.78-.93a.333.333 0 0 0-.041-.468l-1.044-.876a.333.333 0 0 0-.468.041l-.779.929a4.462 4.462 0 0 0-1.02-.372v-1.212a.333.333 0 0 0-.332-.332h-1.363a.333.333 0 0 0-.332.332v1.212c-.359.083-.7.209-1.02.372l-.78-.929a.333.333 0 0 0-.467-.04l-1.044.875a.333.333 0 0 0-.041.469l.78.929a4.49 4.49 0 0 0-.544.939l-1.194-.21a.333.333 0 0 0-.385.27l-.236 1.341a.333.333 0 0 0 .27.385l1.194.21c.019.37.084.729.187 1.07l-1.05.605a.332.332 0 0 0-.121.454l.681 1.18a.331.331 0 0 0 .454.122l1.05-.607c.247.265.526.5.831.698l-.415 1.14a.332.332 0 0 0 .199.425l1.28.466a.332.332 0 0 0 .426-.198l.415-1.14a4.496 4.496 0 0 0 1.085 0l.415 1.14a.332.332 0 0 0 .426.198l1.28-.465a.332.332 0 0 0 .198-.426l-.414-1.14c.304-.198.583-.433.83-.697l1.05.606a.332.332 0 0 0 .455-.121l.681-1.18a.333.333 0 0 0-.122-.455l-1.05-.605a4.48 4.48 0 0 0 .188-1.07l1.195-.21a.332.332 0 0 0 .214-.136.326.326 0 0 0 .057-.249Zm-5.944 2.133a1.828 1.828 0 1 1 0-3.657 1.828 1.828 0 0 1 0 3.657ZM14.904 21.3c0-.43-.252-.826-.643-1.007l-3.57-1.659 3.57-1.659c.39-.181.643-.576.643-1.006v-.029a1.104 1.104 0 0 0-1.11-1.108 1.12 1.12 0 0 0-.468.102l-5.708 2.654c-.39.182-.641.577-.641 1.006v.08c0 .429.251.824.641 1.006l5.709 2.654a1.104 1.104 0 0 0 1.064-.07c.321-.206.513-.555.513-.936V21.3Zm5.631-9.173a1.114 1.114 0 0 0-.896-.455h-.028c-.485 0-.91.31-1.057.77l-3.76 11.653c-.108.336-.048.707.16.992.209.285.543.455.896.455h.029c.484 0 .909-.31 1.056-.77l3.76-11.652a1.112 1.112 0 0 0-.16-.993Zm7.336 5.461-5.708-2.654a1.113 1.113 0 0 0-1.577 1.006v.029c0 .43.252.824.642 1.006l3.57 1.66-3.57 1.658c-.39.181-.642.576-.642 1.006v.03a1.105 1.105 0 0 0 1.11 1.108c.162 0 .319-.034.467-.103l5.709-2.654c.39-.182.641-.577.641-1.006v-.08c0-.43-.252-.824-.642-1.006Z"/></svg>