<svg width="80" height="80" viewBox="0 0 80 80" fill="none" xmlns="http://www.w3.org/2000/svg">
<rect width="80" height="80" rx="40" fill="#0D0F18"/>
<g clip-path="url(#clip0_2282_5640)">
<path d="M54.25 55.0417V59H25.75V55.0417C25.75 51.1134 28.9467 47.9167 32.875 47.9167H47.125C51.0532 47.9167 54.25 51.1134 54.25 55.0417ZM31.8806 27.3761C34.3016 25.1072 37.4714 23.9862 40.7948 24.192C47.0078 24.5942 51.8766 30.0013 51.8766 36.5009C51.8753 37.848 51.3396 39.1396 50.387 40.0922C49.4344 41.0448 48.1428 41.5805 46.7956 41.5818H42.9861C42.7751 40.8495 42.3064 40.2183 41.6664 39.8046C41.0264 39.3909 40.2584 39.2227 39.504 39.3309C38.7497 39.4391 38.06 39.8165 37.5621 40.3935C37.0643 40.9704 36.7919 41.708 36.7953 42.47C36.7953 43.3099 37.1289 44.1153 37.7228 44.7092C38.3167 45.3031 39.1221 45.6367 39.962 45.6367C40.8138 45.6367 41.5849 45.2963 42.1533 44.7484H46.7956C48.9823 44.7459 51.0786 43.8762 52.6248 42.33C54.171 40.7838 55.0407 38.6875 55.0432 36.5009C55.0416 28.3372 48.873 21.5415 40.9975 21.0333C38.94 20.8881 36.8748 21.1718 34.9326 21.8662C32.9904 22.5607 31.2136 23.6508 29.7146 25.0676C26.8857 27.7272 25.1902 31.3745 24.9805 35.2516H28.1519C28.3397 32.2461 29.6745 29.4259 31.8806 27.3761ZM44.9083 38.4167H47.0743C47.4594 38.42 47.8324 38.2825 48.1232 38.0299C48.4139 37.7774 48.6023 37.4273 48.6529 37.0455C48.7631 36.0778 48.7144 35.0985 48.5088 34.1464C47.8058 30.8547 45.1347 28.1994 41.8382 27.5218C40.5677 27.2509 39.2528 27.2671 37.9894 27.5693C36.726 27.8715 35.546 28.4521 34.5357 29.2685C33.5253 30.085 32.71 31.1168 32.1493 32.2886C31.5886 33.4604 31.2967 34.7427 31.2948 36.0417C31.2932 38.2784 32.1554 40.4294 33.7015 42.0457C33.8756 38.7033 36.6164 36.0401 40.0016 36.0401C41.9934 36.0401 43.7477 36.9774 44.9083 38.4151V38.4167Z" fill="#009688"/>
</g>
<defs>
<clipPath id="clip0_2282_5640">
<rect width="38" height="38" fill="white" transform="translate(21 21)"/>
</clipPath>
</defs>
</svg>
