<svg width="80" height="80" viewBox="0 0 80 80" fill="none" xmlns="http://www.w3.org/2000/svg">
<rect width="80" height="80" rx="40" fill="#0D0F18"/>
<g clip-path="url(#clip0_2282_5649)">
<path d="M59.0004 54.6332V59H55.8337V54.6332C55.8333 53.6178 55.5319 52.6254 54.9675 51.7813C54.4032 50.9372 53.6013 50.2794 52.6632 49.891C51.725 49.5026 50.6928 49.401 49.697 49.5992C48.7011 49.7973 47.7864 50.2863 47.0684 51.0042L42.3184 55.7542C41.2919 56.7866 40.0707 57.6051 38.7257 58.1622C37.3806 58.7194 35.9384 59.0042 34.4825 59H25.9435C24.966 59.0004 24.0103 58.7108 23.1974 58.168C22.3844 57.6251 21.7507 56.8533 21.3765 55.9503C21.0022 55.0472 20.9042 54.0534 21.0949 53.0947C21.2855 52.1359 21.7563 51.2552 22.4475 50.564L22.932 50.0795C22.5984 49.2988 22.5057 48.4363 22.666 47.6026C22.8262 46.7688 23.2321 46.0021 23.8314 45.4008L33.3314 35.9008C33.7769 36.8823 34.3526 37.7994 35.043 38.6273C36.2158 40.0287 37.6779 41.1597 39.3291 41.9428L29.8496 51.419C29.2494 52.0211 28.4822 52.4291 27.6474 52.59C26.8126 52.751 25.9487 52.6574 25.1677 52.3215L24.6927 52.7965C24.4424 53.0441 24.2713 53.3606 24.2014 53.7057C24.1314 54.0507 24.1656 54.4088 24.2997 54.7344C24.4338 55.06 24.6617 55.3383 24.9544 55.534C25.2471 55.7297 25.5914 55.8339 25.9435 55.8333H34.4825C35.5224 55.836 36.5526 55.6323 37.5133 55.2342C38.4741 54.836 39.3463 54.2513 40.0795 53.5138L44.8295 48.7638C45.9905 47.603 47.4696 46.8126 49.0798 46.4923C50.6899 46.1721 52.3589 46.3365 53.8756 46.9647C55.3924 47.593 56.6888 48.6568 57.601 50.0217C58.5132 51.3867 59.0002 52.9915 59.0004 54.6332ZM44.7504 40C46.6293 40 48.466 39.4428 50.0283 38.399C51.5906 37.3551 52.8082 35.8714 53.5272 34.1355C54.2463 32.3996 54.4344 30.4895 54.0678 28.6466C53.7013 26.8038 52.7965 25.1111 51.4679 23.7825C50.1393 22.4539 48.4466 21.5491 46.6037 21.1825C44.7609 20.816 42.8508 21.0041 41.1149 21.7231C39.379 22.4422 37.8953 23.6598 36.8514 25.2221C35.8075 26.7844 35.2504 28.6211 35.2504 30.5C35.2504 33.0196 36.2513 35.4359 38.0329 37.2175C39.8145 38.9991 42.2308 40 44.7504 40Z" fill="#009688"/>
</g>
<defs>
<clipPath id="clip0_2282_5649">
<rect width="38" height="38" fill="white" transform="translate(21 21)"/>
</clipPath>
</defs>
</svg>
