<svg width="80" height="80" viewBox="0 0 80 80" fill="none" xmlns="http://www.w3.org/2000/svg">
<rect width="80" height="80" rx="40" fill="#0D0F18"/>
<g clip-path="url(#clip0_2282_5658)">
<path d="M25.75 25.75C25.7405 25.3283 25.8153 24.9089 25.97 24.5165C26.1248 24.1242 26.3564 23.7666 26.6512 23.465C26.9461 23.1633 27.2982 22.9236 27.687 22.7599C28.0757 22.5962 28.4933 22.5118 28.9151 22.5117C29.3369 22.5116 29.7545 22.5958 30.1433 22.7593C30.5321 22.9228 30.8844 23.1623 31.1794 23.4638C31.4744 23.7654 31.7061 24.1228 31.8611 24.5151C32.0161 24.9074 32.0911 25.3267 32.0817 25.7484C32.0635 26.5758 31.722 27.3632 31.1304 27.9419C30.5389 28.5207 29.7442 28.8449 28.9166 28.8451C28.0891 28.8453 27.2943 28.5215 26.7024 27.943C26.1106 27.3646 25.7687 26.5774 25.75 25.75ZM40 28.9167C41.0498 28.9167 42.0566 28.4996 42.799 27.7573C43.5413 27.015 43.9583 26.0081 43.9583 24.9583C43.9583 23.9085 43.5413 22.9017 42.799 22.1594C42.0566 21.417 41.0498 21 40 21C38.9502 21 37.9434 21.417 37.201 22.1594C36.4587 22.9017 36.0417 23.9085 36.0417 24.9583C36.0417 26.0081 36.4587 27.015 37.201 27.7573C37.9434 28.4996 38.9502 28.9167 40 28.9167ZM51.0833 28.9167C51.505 28.9262 51.9244 28.8514 52.3168 28.6966C52.7092 28.5419 53.0667 28.3103 53.3684 28.0154C53.67 27.7206 53.9097 27.3685 54.0734 26.9797C54.2371 26.591 54.3215 26.1734 54.3216 25.7516C54.3217 25.3298 54.2375 24.9122 54.074 24.5234C53.9105 24.1345 53.671 23.7823 53.3695 23.4873C53.068 23.1923 52.7106 22.9605 52.3183 22.8056C51.9259 22.6506 51.5066 22.5756 51.0849 22.5849C50.2575 22.6032 49.4702 22.9447 48.8914 23.5362C48.3126 24.1278 47.9885 24.9224 47.9883 25.75C47.9881 26.5776 48.3118 27.3724 48.8903 27.9642C49.4688 28.5561 50.256 28.898 51.0833 28.9167ZM59 40C59 50.4769 50.4769 59 40 59C29.5231 59 21 50.4769 21 40H24.1667C24.1667 41.6546 24.4248 43.249 24.8966 44.75H30.3464C29.9342 43.1999 29.7199 41.6039 29.7083 40H32.875C32.875 41.6467 33.1584 43.2427 33.6192 44.75H46.3777C46.84 43.2411 47.125 41.6451 47.125 40H50.2917C50.2802 41.6039 50.0658 43.1999 49.6536 44.75H55.1034C55.5881 43.2133 55.8343 41.6113 55.8333 40H59ZM34.8906 47.9167C36.5119 51.2179 38.7096 53.8146 39.9984 55.1778C41.2841 53.813 43.4802 51.2148 45.1031 47.9167H34.8922H34.8906ZM35.8643 55.2665C34.376 53.4188 32.6597 50.8854 31.4136 47.9167H26.3089C28.4037 51.5278 31.8367 54.1683 35.8643 55.2665ZM53.6895 47.9167H48.5833C47.3372 50.8854 45.6224 53.4188 44.1325 55.2665C48.1601 54.1682 51.5946 51.5276 53.6895 47.9167ZM46.3318 36.8333V34.4583C46.3318 32.2749 44.5553 30.5 42.3734 30.5H37.6234C36.574 30.5013 35.5679 30.9187 34.8258 31.6608C34.0838 32.4028 33.6663 33.4089 33.6651 34.4583V36.8333H46.3318ZM48.2919 30.5C48.911 31.4231 49.2878 32.5077 49.4177 33.6667L49.4984 34.4583V36.8333H57.4151V34.4583C57.4151 33.4085 56.998 32.4017 56.2557 31.6594C55.5134 30.917 54.5066 30.5 53.4568 30.5H48.2919ZM30.4984 35.25L30.5792 33.6667C30.709 32.5077 31.0858 31.4231 31.7049 30.5H26.5417C25.4919 30.5 24.485 30.917 23.7427 31.6594C23.0004 32.4017 22.5833 33.4085 22.5833 34.4583V36.8333H30.5L30.4984 35.25Z" fill="#009688"/>
</g>
<defs>
<clipPath id="clip0_2282_5658">
<rect width="38" height="38" fill="white" transform="translate(21 21)"/>
</clipPath>
</defs>
</svg>
